<svg width="42" height="31" viewBox="0 0 42 31" fill="none" xmlns="http://www.w3.org/2000/svg">
<path d="M38.5088 18.2439L41.9558 5.65017C42.2046 4.74088 41.3723 3.875 40.2493 3.875H11.6089L10.9406 1.16189C10.774 0.485647 10.0574 0 9.22608 0H1.75C0.78349 0 0 0.650576 0 1.45312V2.42188C0 3.22442 0.78349 3.875 1.75 3.875H6.84564L11.9679 24.6689C10.7425 25.2541 9.91667 26.3513 9.91667 27.6094C9.91667 29.482 11.7448 31 14 31C16.2552 31 18.0833 29.482 18.0833 27.6094C18.0833 26.6604 17.6132 25.803 16.8566 25.1875H32.1434C31.3868 25.803 30.9167 26.6604 30.9167 27.6094C30.9167 29.482 32.7448 31 35 31C37.2552 31 39.0833 29.482 39.0833 27.6094C39.0833 26.2669 38.1436 25.1069 36.7807 24.5575L37.183 23.0877C37.4319 22.1784 36.5995 21.3125 35.4765 21.3125H15.9044L15.4271 19.375H36.8023C37.6194 19.375 38.3277 18.9055 38.5088 18.2439Z" fill="white"/>
</svg>
